<mxfile host="app.diagrams.net" agent="Mozilla/5.0 (X11; Linux x86_64; rv:140.0) Gecko/20100101 Firefox/140.0" version="28.0.1">
  <diagram id="chSc8eJwqFy3lXWsQzqH" name="Page-1">
    <mxGraphModel dx="1783" dy="634" grid="1" gridSize="10" guides="1" tooltips="1" connect="1" arrows="1" fold="1" page="1" pageScale="1" pageWidth="850" pageHeight="1100" math="0" shadow="0">
      <root>
        <mxCell id="0" />
        <mxCell id="1" parent="0" />
        <mxCell id="user" value="User" style="rounded=1;whiteSpace=wrap;html=1;" parent="1" vertex="1">
          <mxGeometry x="-60" y="100" width="120" height="60" as="geometry" />
        </mxCell>
        <mxCell id="upload" value="Upload Server" style="rounded=1;whiteSpace=wrap;html=1;" parent="1" vertex="1">
          <mxGeometry x="170" y="100" width="120" height="60" as="geometry" />
        </mxCell>
        <mxCell id="github" value="GitHub" style="ellipse;whiteSpace=wrap;html=1;fillColor=#f39c12" parent="1" vertex="1">
          <mxGeometry x="360" y="40" width="100" height="60" as="geometry" />
        </mxCell>
        <mxCell id="s3_upload" value="S3" style="ellipse;whiteSpace=wrap;html=1;fillColor=#9b59b6" parent="1" vertex="1">
          <mxGeometry x="500" y="390" width="140" height="60" as="geometry" />
        </mxCell>
        <mxCell id="x-0vK5npGYyJ1vBO1GtR-4" value="" style="edgeStyle=orthogonalEdgeStyle;rounded=0;orthogonalLoop=1;jettySize=auto;html=1;" parent="1" source="queue" target="worker1" edge="1">
          <mxGeometry relative="1" as="geometry" />
        </mxCell>
        <mxCell id="queue" value="Queue (Redis)" style="shape=label;whiteSpace=wrap;html=1;aspect=fixed;fillStyle=solid;rounded=1;" parent="1" vertex="1">
          <mxGeometry x="140" y="200" width="180" height="60" as="geometry" />
        </mxCell>
        <mxCell id="e1" style="endArrow=block;" parent="1" source="user" target="upload" edge="1">
          <mxGeometry relative="1" as="geometry" />
        </mxCell>
        <mxCell id="e2" style="endArrow=classic;startArrow=classic;html=1;" parent="1" source="upload" target="github" edge="1">
          <mxGeometry relative="1" as="geometry" />
        </mxCell>
        <mxCell id="e3" style="endArrow=classic;startArrow=classic;html=1;" parent="1" source="upload" target="s3_upload" edge="1">
          <mxGeometry relative="1" as="geometry">
            <Array as="points">
              <mxPoint x="580" y="130" />
            </Array>
          </mxGeometry>
        </mxCell>
        <mxCell id="e4" style="endArrow=block;" parent="1" source="upload" target="queue" edge="1">
          <mxGeometry relative="1" as="geometry" />
        </mxCell>
        <mxCell id="queue2" value="Queue (Job IDs)" style="shape=label;whiteSpace=wrap;html=1;rounded=1;" parent="1" vertex="1">
          <mxGeometry x="-80" y="390" width="160" height="60" as="geometry" />
        </mxCell>
        <mxCell id="worker1" value="Server 1" style="rounded=1;whiteSpace=wrap;html=1;fillColor=#3498db" parent="1" vertex="1">
          <mxGeometry x="170" y="320" width="120" height="60" as="geometry" />
        </mxCell>
        <mxCell id="worker2" value="Server 2" style="rounded=1;whiteSpace=wrap;html=1;fillColor=#3498db" parent="1" vertex="1">
          <mxGeometry x="170" y="410" width="120" height="60" as="geometry" />
        </mxCell>
        <mxCell id="worker3" value="Server 3" style="rounded=1;whiteSpace=wrap;html=1;fillColor=#3498db" parent="1" vertex="1">
          <mxGeometry x="170" y="510" width="120" height="60" as="geometry" />
        </mxCell>
        <mxCell id="e5" style="endArrow=block;entryX=-0.017;entryY=0.617;entryDx=0;entryDy=0;entryPerimeter=0;" parent="1" source="queue2" target="worker1" edge="1">
          <mxGeometry relative="1" as="geometry" />
        </mxCell>
        <mxCell id="e6" style="endArrow=block;" parent="1" source="queue2" target="worker2" edge="1">
          <mxGeometry relative="1" as="geometry" />
        </mxCell>
        <mxCell id="e7" style="endArrow=block;" parent="1" source="queue2" target="worker3" edge="1">
          <mxGeometry relative="1" as="geometry" />
        </mxCell>
        <mxCell id="e8" style="endArrow=block;entryX=0;entryY=0;entryDx=0;entryDy=0;" parent="1" source="worker1" target="s3_upload" edge="1">
          <mxGeometry relative="1" as="geometry">
            <Array as="points">
              <mxPoint x="520" y="350" />
            </Array>
            <mxPoint x="300" y="330" as="sourcePoint" />
          </mxGeometry>
        </mxCell>
        <mxCell id="e9" style="endArrow=block;entryX=0;entryY=1;entryDx=0;entryDy=0;" parent="1" source="worker2" target="s3_upload" edge="1">
          <mxGeometry relative="1" as="geometry" />
        </mxCell>
        <mxCell id="e10" style="endArrow=block;entryX=0.5;entryY=1;entryDx=0;entryDy=0;" parent="1" source="worker3" target="s3_upload" edge="1">
          <mxGeometry relative="1" as="geometry">
            <Array as="points">
              <mxPoint x="570" y="540" />
            </Array>
            <mxPoint x="460" y="460" as="targetPoint" />
          </mxGeometry>
        </mxCell>
        <mxCell id="users" value="Global Users" style="rounded=1;whiteSpace=wrap;html=1;" parent="1" vertex="1">
          <mxGeometry y="620" width="120" height="60" as="geometry" />
        </mxCell>
        <mxCell id="domain" value="deplox.com" style="rounded=1;whiteSpace=wrap;html=1;" parent="1" vertex="1">
          <mxGeometry x="180" y="620" width="120" height="60" as="geometry" />
        </mxCell>
        <mxCell id="e11" style="endArrow=classic;startArrow=classic;html=1;" parent="1" source="users" target="domain" edge="1">
          <mxGeometry relative="1" as="geometry" />
        </mxCell>
        <mxCell id="e12" style="endArrow=classic;entryX=1;entryY=0.5;entryDx=0;entryDy=0;startArrow=classic;html=1;" parent="1" source="domain" target="s3_upload" edge="1">
          <mxGeometry relative="1" as="geometry">
            <mxPoint x="340" y="650" as="targetPoint" />
            <Array as="points">
              <mxPoint x="690" y="650" />
              <mxPoint x="690" y="420" />
            </Array>
          </mxGeometry>
        </mxCell>
      </root>
    </mxGraphModel>
  </diagram>
</mxfile>
